{
  "accessors": [
    {
      "bufferView": 2,
      "componentType": 5126,
      "count": 24332,
      "max": [
        65.98776245117188,
        65.34422302246094,
        -56.11708068847656
      ],
      "min": [
        -62.39583206176758,
        -64.86520385742188,
        -74.06197357177734
      ],
      "type": "VEC3"
    },
    {
      "bufferView": 2,
      "byteOffset": 291984,
      "componentType": 5126,
      "count": 24332,
      "max": [
        0.9999479651451111,
        0.9999266266822815,
        0.9999988079071045
      ],
      "min": [
        -0.9999765753746033,
        -0.9998107552528381,
        -0.9983210563659668
      ],
      "type": "VEC3"
    },
    {
      "bufferView": 1,
      "componentType": 5126,
      "count": 24332,
      "max": [
        0.9982200264930725,
        0.9998999834060669
      ],
      "min": [
        0.00031999999191612005,
        7.000000186963007e-05
      ],
      "type": "VEC2"
    },
    {
      "bufferView": 0,
      "componentType": 5125,
      "count": 121686,
      "type": "SCALAR"
    },
    {
      "bufferView": 2,
      "byteOffset": 583968,
      "componentType": 5126,
      "count": 22,
      "max": [
        46.83433151245117,
        50.628482818603516,
        -72.28645324707031
      ],
      "min": [
        23.77284049987793,
        -8.86290168762207,
        -73.99767303466797
      ],
      "type": "VEC3"
    },
    {
      "bufferView": 2,
      "byteOffset": 584232,
      "componentType": 5126,
      "count": 22,
      "max": [
        0.7557474374771118,
        0.24193406105041504,
        0.9987253546714783
      ],
      "min": [
        -0.6737480759620667,
        -0.7703075408935547,
        -0.45309820771217346
      ],
      "type": "VEC3"
    },
    {
      "bufferView": 1,
      "byteOffset": 194656,
      "componentType": 5126,
      "count": 22,
      "max": [
        0.0,
        0.0
      ],
      "min": [
        0.0,
        0.0
      ],
      "type": "VEC2"
    },
    {
      "bufferView": 0,
      "byteOffset": 486744,
      "componentType": 5125,
      "count": 42,
      "type": "SCALAR"
    }
  ],
  "asset": {
    "extras": {
      "author": "alban (https://sketchfab.com/alban)",
      "license": "CC-BY-4.0 (http://creativecommons.org/licenses/by/4.0/)",
      "source": "https://sketchfab.com/3d-models/plane-meal-adba2a6eaf5c461e955653997d10cf6d",
      "title": "Plane meal"
    },
    "generator": "Sketchfab-12.63.0",
    "version": "2.0"
  },
  "bufferViews": [
    {
      "buffer": 0,
      "byteLength": 486912,
      "name": "floatBufferViews",
      "target": 34963
    },
    {
      "buffer": 0,
      "byteLength": 194832,
      "byteOffset": 486912,
      "byteStride": 8,
      "name": "floatBufferViews",
      "target": 34962
    },
    {
      "buffer": 0,
      "byteLength": 584496,
      "byteOffset": 681744,
      "byteStride": 12,
      "name": "floatBufferViews",
      "target": 34962
    }
  ],
  "buffers": [
    {
      "byteLength": 1266240,
      "uri": "scene.bin"
    }
  ],
  "extensionsUsed": [
    "KHR_materials_unlit"
  ],
  "images": [
    {
      "uri": "textures/material0_baseColor.jpeg"
    }
  ],
  "materials": [
    {
      "doubleSided": true,
      "extensions": {
        "KHR_materials_unlit": {}
      },
      "name": "material0",
      "pbrMetallicRoughness": {
        "baseColorTexture": {
          "index": 0
        },
        "metallicFactor": 0.0
      }
    }
  ],
  "meshes": [
    {
      "name": "Object_0",
      "primitives": [
        {
          "attributes": {
            "NORMAL": 1,
            "POSITION": 0,
            "TEXCOORD_0": 2
          },
          "indices": 3,
          "material": 0,
          "mode": 4
        }
      ]
    },
    {
      "name": "Object_1",
      "primitives": [
        {
          "attributes": {
            "NORMAL": 5,
            "POSITION": 4,
            "TEXCOORD_0": 6
          },
          "indices": 7,
          "material": 0,
          "mode": 4
        }
      ]
    }
  ],
  "nodes": [
    {
      "children": [
        1
      ],
      "matrix": [
        0.9998672604560852,
        0.016293073073029518,
        0.0001312143576797134,
        0.0,
        1.3552527156068805e-20,
        0.00805312115699075,
        -0.9999675750732422,
        0.0,
        -0.0162936020642519,
        0.9998348355293274,
        0.008052051998675092,
        0.0,
        -1.060304880142212,
        -0.041943561285734295,
        0.5238610506057739,
        1.0
      ],
      "name": "Sketchfab_model"
    },
    {
      "children": [
        2,
        3
      ],
      "name": "mealpp.obj.cleaner.materialmerger.gles"
    },
    {
      "mesh": 0,
      "name": "Object_2"
    },
    {
      "mesh": 1,
      "name": "Object_3"
    }
  ],
  "samplers": [
    {
      "magFilter": 9729,
      "minFilter": 9987,
      "wrapS": 10497,
      "wrapT": 10497
    }
  ],
  "scene": 0,
  "scenes": [
    {
      "name": "Sketchfab_Scene",
      "nodes": [
        0
      ]
    }
  ],
  "textures": [
    {
      "sampler": 0,
      "source": 0
    }
  ]
}
